<?xml version="1.0" encoding="utf-8" standalone="yes"?>
<!DOCTYPE svg PUBLIC "-//W3C//DTD SVG 1.1//EN" "http://www.w3.org/Graphics/SVG/1.1/DTD/svg11.dtd">
<svg xmlns="http://www.w3.org/2000/svg" xmlns:xlink="http://www.w3.org/1999/xlink" width="10in" height="7.5in" viewBox="0 0 720 540" version="1.1">
  <g text-rendering="geometricPrecision" xml:space="preserve" transform="scale(1,1)">
<rect x="0" y="0" width="720" height="540" fill="#ffffff" />
<g transform="matrix(1, 0, 0, 1, 43.2000122, 25.225)">
  <text font-family="Arial Unicode" font-size="24pt" fill="#000000"><tspan x="212.098816" y="33.5035858" textLength="225.550781">Employee Directory</tspan>
</text>
</g>
<g transform="matrix(1, 0, 0, 1, 42, 140.5)">
  <path stroke-linecap="round" stroke-width="2.25" stroke="#000000" fill="none" d="M0 0L0 45.5" />
  <path stroke-linecap="round" stroke-width="2.25" stroke="#000000" fill="none" d="M0 45.5L0 87.5" />
  <path stroke-width="2.25" stroke="#000000" fill="none" d="M321 0L321 45.5" />
  <path stroke-width="2.25" stroke="#000000" fill="none" d="M321 45.5L321 87.5" />
  <path stroke-linecap="round" stroke-width="2.25" stroke="#000000" fill="none" d="M642 0L642 45.5" />
  <path stroke-linecap="round" stroke-width="2.25" stroke="#000000" fill="none" d="M642 45.5L642 87.5" />
  <path stroke-linecap="round" stroke-width="2.25" stroke="#000000" fill="none" d="M0 0L321 0" />
  <path stroke-linecap="round" stroke-width="2.25" stroke="#000000" fill="none" d="M321 0L642 0" />
  <path stroke-width="1" stroke="#000000" fill="none" d="M0 45.5L321 45.5" />
  <path stroke-width="1" stroke="#000000" fill="none" d="M321 45.5L642 45.5" />
  <path stroke-linecap="round" stroke-width="2.25" stroke="#000000" fill="none" d="M0 87.5L321 87.5" />
  <path stroke-linecap="round" stroke-width="2.25" stroke="#000000" fill="none" d="M321 87.5L642 87.5" />
</g>
<g transform="matrix(1, 0, 0, 1, 43.2000122, 81.6)">
  <text font-family="Arial Unicode" font-size="15pt" fill="#000000"><tspan x="0" y="19.4475517" textLength="55.078125">Subtitle</tspan>
</text>
</g>
<g transform="matrix(1, 0, 0, 1, 55.0749969, 160.725)">
  <text font-family="Arial Unicode" font-size="13.5pt" fill="#000000"><tspan x="0" y="17.5028" textLength="27.7976074">CH1</tspan>
</text>
</g>
<g transform="matrix(1, 0, 0, 1, 379.2, 160.725)">
  <text font-family="Arial Unicode" font-size="13.5pt" fill="#000000"><tspan x="0" y="17.5028" textLength="27.7976074">CH2</tspan>
</text>
</g>
<text font-family="Arial" font-weight="bold" font-size="18pt" fill="#ffd8cf" opacity="0.75"><tref xlink:href="#tp_0" x="291.836823" y="240.684464" fill="#000000" opacity="0.38" textLength="138.023438"/><tref xlink:href="#tp_1" x="173.272354" y="260.793854" fill="#000000" opacity="0.38" textLength="375.152344"/><tref xlink:href="#tp_2" x="202.302628" y="280.903229" fill="#000000" opacity="0.38" textLength="317.0918"/></text>
<text font-family="Arial" font-weight="bold" font-size="18pt" fill="#ffd8cf" opacity="0.75"><tspan x="290.988281" y="239.835938" textLength="138.023438" id="tp_0">Evaluation only.</tspan>
<tspan x="172.423828" y="259.9453" textLength="375.152344" id="tp_1">Created with Aspose.Slides for Java 7.7.0.0.</tspan>
<tspan x="201.4541" y="280.0547" textLength="317.0918" id="tp_2">Copyright 2004-2013 Aspose Pty Ltd.</tspan>
</text>
</g>
</svg>