<?xml version="1.0" encoding="utf-8" standalone="yes"?>
<!DOCTYPE svg PUBLIC "-//W3C//DTD SVG 1.1//EN" "http://www.w3.org/Graphics/SVG/1.1/DTD/svg11.dtd">
<svg xmlns="http://www.w3.org/2000/svg" xmlns:xlink="http://www.w3.org/1999/xlink" width="10in" height="7.5in" viewBox="0 0 720 540" version="1.1">
  <g text-rendering="geometricPrecision" xml:space="preserve" transform="scale(1,1)">
<rect x="0" y="0" width="720" height="540" fill="#ffffff" />
<g transform="matrix(1, 0, 0, 1, 127.2, 196.725)">
  <path d="M1.7 21.9L1.7 8.8 5.2 8.8C6.8 8.8 7.9 9.1 8.6 9.6 9.3 10.2 9.6 11 9.6 12.3 9.6 13.6 9.2 14.7 8.2 15.5 7.3 16.3 6 16.7 4.3 16.7L3.5 16.7 3.5 21.9zM3.5 15.3L4.3 15.3C5.3 15.3 6.2 15 6.8 14.5 7.4 14 7.7 13.3 7.7 12.4 7.7 11.6 7.5 11.1 7 10.7 6.5 10.4 5.7 10.2 4.6 10.2L3.5 10.2zM11.7 21.9L11.7 12.3 13.4 12.3 13.4 14.1C14.1 12.8 15.1 12.1 16.4 12.1 16.6 12.1 16.8 12.1 17 12.1L17 13.8C16.7 13.7 16.4 13.6 16.2 13.6 15.1 13.6 14.2 14.3 13.4 15.6L13.4 21.9zM26 21.5C24.9 21.9 23.9 22.1 23.1 22.1 21.7 22.1 20.5 21.6 19.6 20.7 18.7 19.7 18.3 18.5 18.3 17 18.3 15.6 18.7 14.4 19.5 13.5 20.2 12.6 21.2 12.1 22.5 12.1 23.6 12.1 24.5 12.5 25.1 13.3 25.8 14.1 26.1 15.3 26.1 16.8L26.1 17.4 20.1 17.4C20.3 19.6 21.4 20.8 23.4 20.8 24.1 20.8 25 20.6 26 20.2zM20.1 16.1L24.3 16.1C24.3 14.3 23.7 13.4 22.4 13.4 21 13.4 20.3 14.3 20.1 16.1zM31.6 22.1C30.8 22.1 29.9 21.9 28.7 21.5L28.7 19.9C29.9 20.5 30.8 20.8 31.7 20.8 32.2 20.8 32.6 20.6 32.9 20.4 33.2 20.1 33.4 19.8 33.4 19.4 33.4 18.8 32.9 18.3 32 17.9L31 17.5C29.5 16.8 28.8 15.9 28.8 14.8 28.8 13.9 29.1 13.3 29.7 12.8 30.2 12.3 31.1 12.1 32.1 12.1 32.6 12.1 33.3 12.2 34.1 12.3L34.4 12.4 34.4 13.8C33.5 13.5 32.7 13.4 32.1 13.4 31 13.4 30.4 13.8 30.4 14.6 30.4 15.1 30.9 15.6 31.7 15.9L32.5 16.3C33.5 16.7 34.2 17.1 34.5 17.5 34.9 18 35.1 18.5 35.1 19.2 35.1 20 34.8 20.7 34.1 21.3 33.5 21.8 32.6 22.1 31.6 22.1zM45.2 21.5C44.1 21.9 43.1 22.1 42.3 22.1 40.9 22.1 39.7 21.6 38.8 20.7 37.9 19.7 37.5 18.5 37.5 17 37.5 15.6 37.9 14.4 38.7 13.5 39.4 12.6 40.5 12.1 41.7 12.1 42.8 12.1 43.7 12.5 44.3 13.3 45 14.1 45.3 15.3 45.3 16.8L45.3 17.4 39.3 17.4C39.5 19.6 40.6 20.8 42.6 20.8 43.3 20.8 44.2 20.6 45.2 20.2zM39.3 16.1L43.5 16.1C43.5 14.3 42.9 13.4 41.6 13.4 40.2 13.4 39.5 14.3 39.3 16.1zM48.3 21.9L48.3 12.3 50 12.3 50 14.1C50.9 12.8 52 12.1 53.4 12.1 54.2 12.1 54.9 12.4 55.3 12.9 55.8 13.4 56.1 14.1 56.1 15L56.1 21.9 54.4 21.9 54.4 15.6C54.4 14.9 54.2 14.3 54 14 53.8 13.7 53.5 13.6 53 13.6 51.9 13.6 50.9 14.3 50 15.7L50 21.9zM62.3 22.1C61.4 22.1 60.8 21.8 60.3 21.3 59.8 20.8 59.5 20.1 59.5 19.2L59.5 13.6 58.3 13.6 58.3 12.3 59.5 12.3 59.5 10.6 61.3 10.4 61.3 12.3 63.7 12.3 63.7 13.6 61.3 13.6 61.3 18.9C61.3 20.1 61.8 20.8 62.9 20.8 63.1 20.8 63.4 20.7 63.7 20.7L63.7 21.9C63.2 22 62.7 22.1 62.3 22.1zM73.2 21.5C72 21.9 71 22.1 70.2 22.1 68.8 22.1 67.6 21.6 66.8 20.7 65.9 19.7 65.4 18.5 65.4 17 65.4 15.6 65.8 14.4 66.6 13.5 67.4 12.6 68.4 12.1 69.6 12.1 70.8 12.1 71.6 12.5 72.3 13.3 72.9 14.1 73.2 15.3 73.2 16.8L73.2 17.4 67.2 17.4C67.4 19.6 68.6 20.8 70.5 20.8 71.2 20.8 72.1 20.6 73.2 20.2zM67.3 16.1L71.5 16.1C71.5 14.3 70.8 13.4 69.5 13.4 68.2 13.4 67.4 14.3 67.3 16.1zM76.2 21.9L76.2 12.3 77.9 12.3 77.9 14.1C78.6 12.8 79.6 12.1 80.9 12.1 81.1 12.1 81.3 12.1 81.5 12.1L81.5 13.8C81.2 13.7 80.9 13.6 80.7 13.6 79.6 13.6 78.7 14.3 77.9 15.6L77.9 21.9zM83.6 13L83.6 12.3C83.9 12.2 84.1 12 84.2 11.7 84.4 11.4 84.4 10.9 84.4 10.3L84.4 10.1 83.6 10.1 83.6 8 85.8 8 85.8 9.9C85.8 10.8 85.6 11.6 85.2 12.1 84.9 12.6 84.3 12.9 83.6 13zM91.8 22.1C91 22.1 90 21.9 88.9 21.5L88.9 19.9C90 20.5 91 20.8 91.9 20.8 92.4 20.8 92.8 20.6 93.1 20.4 93.4 20.1 93.6 19.8 93.6 19.4 93.6 18.8 93.1 18.3 92.2 17.9L91.2 17.5C89.7 16.8 89 15.9 89 14.8 89 13.9 89.3 13.3 89.9 12.8 90.4 12.3 91.3 12.1 92.3 12.1 92.8 12.1 93.5 12.2 94.3 12.3L94.6 12.4 94.6 13.8C93.6 13.5 92.9 13.4 92.3 13.4 91.2 13.4 90.6 13.8 90.6 14.6 90.6 15.1 91.1 15.6 91.9 15.9L92.7 16.3C93.7 16.7 94.4 17.1 94.7 17.5 95.1 18 95.3 18.5 95.3 19.2 95.3 20 95 20.7 94.3 21.3 93.7 21.8 92.8 22.1 91.8 22.1zM104.1 21.9L104.1 8.8 105.9 8.8 112.4 18.9 112.4 8.8 114 8.8 114 21.9 112.2 21.9 105.7 11.8 105.7 21.9zM122.4 20.6C121.3 21.6 120.3 22.1 119.4 22.1 118.6 22.1 117.9 21.8 117.4 21.3 116.9 20.8 116.6 20.2 116.6 19.5 116.6 18.4 117.1 17.6 117.9 17.1 118.8 16.5 120.1 16.2 121.7 16.2L122.1 16.2 122.1 15.1C122.1 14 121.5 13.4 120.4 13.4 119.5 13.4 118.5 13.7 117.4 14.2L117.4 12.8C118.6 12.3 119.7 12.1 120.7 12.1 121.8 12.1 122.6 12.3 123.1 12.8 123.6 13.3 123.8 14 123.8 15.1L123.8 19.4C123.8 20.4 124.1 20.9 124.8 20.9 124.8 20.9 124.9 20.9 125.1 20.8L125.2 21.8C124.8 22 124.4 22.1 123.9 22.1 123.1 22.1 122.6 21.6 122.4 20.6zM122.1 19.7L122.1 17.2 121.5 17.2C120.6 17.2 119.8 17.4 119.2 17.8 118.6 18.1 118.3 18.6 118.3 19.2 118.3 19.6 118.5 19.9 118.8 20.2 119.1 20.5 119.4 20.7 119.9 20.7 120.6 20.7 121.3 20.3 122.1 19.7zM127.4 21.9L127.4 12.3 129.1 12.3 129.1 14.1C130 12.8 131 12.1 132.4 12.1 133.6 12.1 134.5 12.8 135 14.1 135.8 12.8 136.9 12.1 138.2 12.1 139 12.1 139.7 12.3 140.1 12.8 140.6 13.3 140.8 14 140.8 14.9L140.8 21.9 139.1 21.9 139.1 15.2C139.1 14.1 138.7 13.5 137.8 13.5 136.9 13.5 136 14.2 135 15.5L135 21.9 133.2 21.9 133.2 15.2C133.2 14.1 132.8 13.5 131.9 13.5 131 13.5 130.1 14.2 129.1 15.5L129.1 21.9zM151.2 21.5C150 21.9 149 22.1 148.2 22.1 146.8 22.1 145.6 21.6 144.8 20.7 143.9 19.7 143.4 18.5 143.4 17 143.4 15.6 143.8 14.4 144.6 13.5 145.4 12.6 146.4 12.1 147.6 12.1 148.8 12.1 149.6 12.5 150.3 13.3 150.9 14.1 151.2 15.3 151.2 16.8L151.2 17.4 145.2 17.4C145.4 19.6 146.6 20.8 148.5 20.8 149.2 20.8 150.1 20.6 151.2 20.2zM145.3 16.1L149.5 16.1C149.5 14.3 148.8 13.4 147.5 13.4 146.2 13.4 145.4 14.3 145.3 16.1z" fill="#000000" />
</g>
<g transform="matrix(1, 0, 0, 1, 7.199997, 3.6)">
  <path d="M354.2 14.57L354.2 5.9 355.43 5.9 355.43 9.55 359.56 9.55 359.56 5.9 360.79 5.9 360.79 14.57 359.56 14.57 359.56 10.47 355.43 10.47 355.43 14.57zM363.42 16.88L364.46 14.57 361.99 8.21 363.24 8.21 365.06 13 367.01 8.21 368.1 8.21 364.63 16.88zM369.32 16.88L369.32 8.21 370.48 8.21 370.48 9.4C370.95 8.51 371.66 8.07 372.61 8.07 373.37 8.07 373.97 8.34 374.41 8.9 374.85 9.46 375.07 10.23 375.07 11.19 375.07 12.25 374.82 13.1 374.33 13.75 373.83 14.39 373.17 14.72 372.36 14.72 371.61 14.72 370.98 14.43 370.48 13.85L370.48 16.88zM370.48 13.05C371.07 13.58 371.64 13.85 372.18 13.85 373.29 13.85 373.84 13 373.84 11.31 373.84 9.82 373.35 9.07 372.37 9.07 371.72 9.07 371.09 9.42 370.48 10.12zM381.54 14.36C380.77 14.6 380.11 14.72 379.56 14.72 378.62 14.72 377.85 14.4 377.26 13.78 376.67 13.16 376.37 12.35 376.37 11.36 376.37 10.39 376.63 9.6 377.16 8.98 377.68 8.37 378.34 8.06 379.16 8.06 379.93 8.06 380.52 8.33 380.94 8.88 381.36 9.43 381.57 10.2 381.57 11.21L381.56 11.57 377.55 11.57C377.72 13.08 378.46 13.84 379.77 13.84 380.25 13.84 380.84 13.71 381.54 13.45zM377.6 10.7L380.41 10.7C380.41 9.52 379.97 8.93 379.09 8.93 378.2 8.93 377.71 9.52 377.6 10.7zM383.56 14.57L383.56 8.21 384.72 8.21 384.72 9.4C385.17 8.51 385.84 8.07 386.71 8.07 386.83 8.07 386.95 8.07 387.08 8.09L387.08 9.17C386.88 9.11 386.7 9.07 386.55 9.07 385.82 9.07 385.21 9.51 384.72 10.37L384.72 14.57zM388.44 14.57L388.44 5.9 389.67 5.9 389.67 13.65 393.57 13.65 393.57 14.57zM394.87 14.57L394.87 8.21 396.03 8.21 396.03 14.57zM394.87 7.05L394.87 5.9 396.03 5.9 396.03 7.05zM398.34 14.57L398.34 8.21 399.49 8.21 399.49 9.4C400.1 8.51 400.85 8.07 401.73 8.07 402.28 8.07 402.72 8.24 403.05 8.59 403.38 8.94 403.54 9.41 403.54 10L403.54 14.57 402.39 14.57 402.39 10.37C402.39 9.9 402.32 9.56 402.18 9.36 402.04 9.16 401.81 9.06 401.49 9.06 400.79 9.06 400.12 9.52 399.49 10.45L399.49 14.57zM405.79 14.57L405.79 5.32 406.94 5.32 406.94 11.29 409.64 8.21 410.88 8.21 408.31 11.18 411.41 14.57 409.94 14.57 406.94 11.31 406.94 14.57z" fill="#009999" />
</g>
<use xlink:href="#tp_0" fill="#000000" fill-opacity="0.38" transform="translate(1.357645, 1.357645)" />
<g fill="#ffd8cf" fill-opacity="0.75">
  <path id="tp_0" d="M292.7 245.3L292.7 228.1 305.5 228.1 305.5 231 296.2 231 296.2 234.8 304.8 234.8 304.8 237.7 296.2 237.7 296.2 242.4 305.8 242.4 305.8 245.3zM312.1 245.3L307.1 232.8 310.6 232.8 312.9 239.2 313.6 241.3C313.8 240.8 313.9 240.4 313.9 240.2 314.1 239.9 314.2 239.5 314.3 239.2L316.7 232.8 320.1 232.8 315.1 245.3zM324.5 236.6L321.5 236.1C321.9 234.9 322.5 234 323.3 233.4 324.1 232.8 325.3 232.5 326.9 232.5 328.4 232.5 329.5 232.7 330.2 233.1 330.9 233.4 331.4 233.9 331.7 234.4 332 234.9 332.2 235.9 332.2 237.3L332.1 241.2C332.1 242.3 332.2 243.1 332.3 243.6 332.4 244.1 332.6 244.7 332.9 245.3L329.6 245.3C329.5 245 329.4 244.7 329.3 244.3 329.3 244.1 329.2 244 329.2 243.9 328.6 244.5 328 244.9 327.4 245.1 326.7 245.4 326.1 245.5 325.3 245.5 324.1 245.5 323 245.2 322.3 244.5 321.6 243.8 321.2 242.9 321.2 241.9 321.2 241.2 321.4 240.5 321.7 240 322 239.4 322.5 239 323.1 238.7 323.7 238.4 324.6 238.2 325.7 238 327.3 237.7 328.3 237.4 328.9 237.1L328.9 236.8C328.9 236.2 328.8 235.7 328.5 235.5 328.2 235.2 327.6 235.1 326.7 235.1 326.1 235.1 325.7 235.2 325.3 235.4 325 235.6 324.7 236 324.5 236.6zM328.9 239.3C328.5 239.4 327.8 239.6 326.9 239.8 326 240 325.4 240.2 325.1 240.4 324.7 240.7 324.5 241.1 324.5 241.5 324.5 242 324.7 242.4 325 242.7 325.4 243.1 325.8 243.2 326.3 243.2 326.9 243.2 327.5 243 328 242.6 328.4 242.3 328.7 242 328.8 241.6 328.9 241.3 328.9 240.7 328.9 239.9zM335.4 245.3L335.4 228.1 338.7 228.1 338.7 245.3zM350.3 245.3L350.3 243.4C349.8 244.1 349.2 244.6 348.5 245 347.7 245.4 347 245.5 346.1 245.5 345.3 245.5 344.6 245.4 343.9 245 343.2 244.6 342.8 244.1 342.5 243.5 342.2 242.8 342 241.9 342 240.7L342 232.8 345.3 232.8 345.3 238.5C345.3 240.3 345.4 241.4 345.5 241.8 345.6 242.2 345.8 242.5 346.1 242.7 346.5 242.9 346.9 243 347.4 243 347.9 243 348.4 242.9 348.9 242.6 349.3 242.3 349.6 241.9 349.8 241.4 350 241 350 239.9 350 238.1L350 232.8 353.3 232.8 353.3 245.3zM359.2 236.6L356.2 236.1C356.6 234.9 357.1 234 357.9 233.4 358.8 232.8 360 232.5 361.6 232.5 363.1 232.5 364.2 232.7 364.9 233.1 365.6 233.4 366.1 233.9 366.4 234.4 366.7 234.9 366.8 235.9 366.8 237.3L366.8 241.2C366.8 242.3 366.9 243.1 367 243.6 367.1 244.1 367.3 244.7 367.6 245.3L364.3 245.3C364.2 245 364.1 244.7 364 244.3 363.9 244.1 363.9 244 363.9 243.9 363.3 244.5 362.7 244.9 362.1 245.1 361.4 245.4 360.7 245.5 360 245.5 358.7 245.5 357.7 245.2 357 244.5 356.2 243.8 355.9 242.9 355.9 241.9 355.9 241.2 356 240.5 356.4 240 356.7 239.4 357.2 239 357.8 238.7 358.4 238.4 359.3 238.2 360.4 238 361.9 237.7 363 237.4 363.6 237.1L363.6 236.8C363.6 236.2 363.5 235.7 363.1 235.5 362.8 235.2 362.2 235.1 361.4 235.1 360.8 235.1 360.3 235.2 360 235.4 359.7 235.6 359.4 236 359.2 236.6zM363.6 239.3C363.2 239.4 362.5 239.6 361.6 239.8 360.7 240 360.1 240.2 359.8 240.4 359.4 240.7 359.2 241.1 359.2 241.5 359.2 242 359.3 242.4 359.7 242.7 360 243.1 360.5 243.2 361 243.2 361.6 243.2 362.2 243 362.7 242.6 363.1 242.3 363.4 242 363.5 241.6 363.6 241.3 363.6 240.7 363.6 239.9zM375.8 232.8L375.8 235.4 373.5 235.4 373.5 240.5C373.5 241.5 373.6 242.1 373.6 242.2 373.7 242.4 373.8 242.5 373.9 242.7 374.1 242.8 374.2 242.8 374.5 242.8 374.8 242.8 375.2 242.7 375.8 242.5L376.1 245.1C375.3 245.4 374.4 245.5 373.5 245.5 372.9 245.5 372.3 245.4 371.9 245.2 371.4 245.1 371 244.8 370.8 244.5 370.6 244.2 370.4 243.7 370.3 243.2 370.3 242.8 370.2 242 370.2 240.9L370.2 235.4 368.7 235.4 368.7 232.8 370.2 232.8 370.2 230.3 373.5 228.4 373.5 232.8zM378.1 231.1L378.1 228.1 381.4 228.1 381.4 231.1zM378.1 245.3L378.1 232.8 381.4 232.8 381.4 245.3zM384 238.9C384 237.8 384.3 236.7 384.8 235.7 385.3 234.7 386.1 233.9 387.1 233.3 388.1 232.8 389.2 232.5 390.4 232.5 392.3 232.5 393.8 233.2 395 234.4 396.2 235.6 396.8 237.1 396.8 239 396.8 240.9 396.2 242.5 395 243.7 393.8 244.9 392.3 245.5 390.4 245.5 389.3 245.5 388.2 245.3 387.2 244.8 386.1 244.3 385.3 243.5 384.8 242.5 384.3 241.5 384 240.3 384 238.9zM387.4 239C387.4 240.3 387.7 241.2 388.2 241.9 388.8 242.5 389.6 242.9 390.4 242.9 391.3 242.9 392 242.5 392.6 241.9 393.2 241.2 393.4 240.3 393.4 239 393.4 237.8 393.2 236.9 392.6 236.2 392 235.6 391.3 235.2 390.4 235.2 389.6 235.2 388.8 235.6 388.2 236.2 387.7 236.9 387.4 237.8 387.4 239zM410.7 245.3L407.4 245.3 407.4 238.9C407.4 237.6 407.4 236.7 407.2 236.3 407.1 235.9 406.9 235.6 406.5 235.4 406.2 235.2 405.8 235.1 405.4 235.1 404.8 235.1 404.3 235.2 403.9 235.5 403.4 235.8 403.1 236.3 402.9 236.8 402.8 237.3 402.7 238.2 402.7 239.6L402.7 245.3 399.4 245.3 399.4 232.8 402.4 232.8 402.4 234.7C403.5 233.2 404.9 232.5 406.5 232.5 407.3 232.5 407.9 232.7 408.5 232.9 409.1 233.2 409.6 233.5 409.9 233.9 410.2 234.3 410.4 234.8 410.5 235.3 410.7 235.8 410.7 236.6 410.7 237.5zM420 238.9C420 237.8 420.2 236.7 420.8 235.7 421.3 234.7 422.1 233.9 423.1 233.3 424.1 232.8 425.2 232.5 426.4 232.5 428.3 232.5 429.8 233.2 431 234.4 432.2 235.6 432.8 237.1 432.8 239 432.8 240.9 432.2 242.5 431 243.7 429.8 244.9 428.3 245.5 426.4 245.5 425.3 245.5 424.2 245.3 423.1 244.8 422.1 244.3 421.3 243.5 420.8 242.5 420.2 241.5 420 240.3 420 238.9zM423.4 239C423.4 240.3 423.6 241.2 424.2 241.9 424.8 242.5 425.5 242.9 426.4 242.9 427.3 242.9 428 242.5 428.6 241.9 429.1 241.2 429.4 240.3 429.4 239 429.4 237.8 429.1 236.9 428.6 236.2 428 235.6 427.3 235.2 426.4 235.2 425.5 235.2 424.8 235.6 424.2 236.2 423.6 236.9 423.4 237.8 423.4 239zM446.7 245.3L443.4 245.3 443.4 238.9C443.4 237.6 443.4 236.7 443.2 236.3 443.1 235.9 442.8 235.6 442.5 235.4 442.2 235.2 441.8 235.1 441.4 235.1 440.8 235.1 440.3 235.2 439.9 235.5 439.4 235.8 439.1 236.3 438.9 236.8 438.8 237.3 438.7 238.2 438.7 239.6L438.7 245.3 435.4 245.3 435.4 232.8 438.4 232.8 438.4 234.7C439.5 233.2 440.9 232.5 442.5 232.5 443.3 232.5 443.9 232.7 444.5 232.9 445.1 233.2 445.6 233.5 445.9 233.9 446.2 234.3 446.4 234.8 446.5 235.3 446.7 235.8 446.7 236.6 446.7 237.5zM450.1 245.3L450.1 228.1 453.4 228.1 453.4 245.3zM455.2 232.8L458.7 232.8 461.6 241.7 464.6 232.8 468 232.8 463.6 244.8 462.8 247C462.5 247.7 462.2 248.2 462 248.6 461.7 249 461.4 249.3 461.1 249.6 460.7 249.8 460.3 250 459.8 250.1 459.3 250.3 458.7 250.3 458.1 250.3 457.5 250.3 456.9 250.3 456.3 250.1L456 247.5C456.5 247.6 456.9 247.7 457.4 247.7 458.1 247.7 458.7 247.5 459.1 247 459.4 246.6 459.7 246 459.9 245.3zM470.1 245.3L470.1 242 473.4 242 473.4 245.3z" />
</g>
<use xlink:href="#tp_1" fill="#000000" fill-opacity="0.38" transform="translate(1.357645, 1.357645)" />
<g fill="#ffd8cf" fill-opacity="0.75">
  <path id="tp_1" d="M185.2 259.1L188.5 260.1C188 262 187.2 263.4 186 264.3 184.8 265.2 183.2 265.7 181.4 265.7 179.1 265.7 177.2 264.9 175.8 263.3 174.3 261.8 173.6 259.6 173.6 256.9 173.6 254.1 174.3 251.9 175.8 250.3 177.3 248.7 179.2 247.9 181.6 247.9 183.7 247.9 185.4 248.5 186.7 249.8 187.5 250.5 188.1 251.6 188.5 252.9L185 253.8C184.8 252.9 184.4 252.2 183.8 251.6 183.1 251.1 182.3 250.9 181.4 250.9 180.2 250.9 179.1 251.3 178.3 252.2 177.5 253.2 177.1 254.6 177.1 256.7 177.1 258.9 177.5 260.4 178.3 261.3 179.1 262.2 180.1 262.7 181.4 262.7 182.3 262.7 183.1 262.4 183.7 261.8 184.4 261.2 184.9 260.3 185.2 259.1zM194.6 265.4L191.3 265.4 191.3 252.9 194.4 252.9 194.4 254.7C194.9 253.9 195.4 253.3 195.8 253 196.2 252.8 196.7 252.7 197.2 252.7 198 252.7 198.7 252.9 199.4 253.3L198.4 256.1C197.8 255.8 197.3 255.6 196.8 255.6 196.4 255.6 196 255.7 195.7 256 195.3 256.2 195.1 256.7 194.9 257.4 194.7 258 194.6 259.4 194.6 261.5zM208 261.4L211.3 262C210.9 263.2 210.2 264.1 209.3 264.7 208.4 265.3 207.3 265.7 205.9 265.7 203.7 265.7 202.1 265 201.1 263.5 200.3 262.4 199.9 261 199.9 259.2 199.9 257.2 200.4 255.6 201.5 254.4 202.6 253.2 203.9 252.7 205.6 252.7 207.4 252.7 208.9 253.3 209.9 254.5 211 255.7 211.5 257.6 211.5 260.1L203.2 260.1C203.3 261.1 203.5 261.8 204 262.4 204.5 262.9 205.2 263.2 205.9 263.2 206.4 263.2 206.9 263.1 207.2 262.8 207.6 262.5 207.8 262 208 261.4zM208.2 258.1C208.2 257.1 207.9 256.4 207.5 255.9 207 255.4 206.4 255.2 205.8 255.2 205 255.2 204.5 255.4 204 256 203.5 256.5 203.3 257.2 203.3 258.1zM216.6 256.7L213.6 256.2C214 255 214.6 254.1 215.4 253.5 216.2 252.9 217.4 252.7 219 252.7 220.5 252.7 221.6 252.8 222.3 253.2 223 253.5 223.5 254 223.8 254.5 224.1 255 224.3 256 224.3 257.4L224.2 261.3C224.2 262.4 224.3 263.2 224.4 263.7 224.5 264.2 224.7 264.8 225 265.4L221.7 265.4C221.6 265.2 221.5 264.8 221.4 264.4 221.4 264.2 221.3 264.1 221.3 264 220.7 264.6 220.1 265 219.5 265.2 218.8 265.5 218.2 265.7 217.4 265.7 216.2 265.7 215.1 265.3 214.4 264.6 213.7 263.9 213.3 263 213.3 262 213.3 261.3 213.5 260.6 213.8 260.1 214.1 259.5 214.6 259.1 215.2 258.8 215.8 258.5 216.7 258.3 217.8 258.1 219.4 257.8 220.4 257.5 221 257.3L221 256.9C221 256.3 220.9 255.8 220.6 255.6 220.3 255.3 219.7 255.2 218.8 255.2 218.2 255.2 217.8 255.3 217.4 255.5 217.1 255.7 216.8 256.2 216.6 256.7zM221 259.4C220.6 259.5 219.9 259.7 219 259.9 218.1 260.1 217.5 260.3 217.2 260.5 216.8 260.8 216.6 261.2 216.6 261.6 216.6 262.1 216.8 262.5 217.1 262.8 217.5 263.2 217.9 263.3 218.4 263.3 219 263.3 219.6 263.1 220.1 262.8 220.5 262.5 220.8 262.1 220.9 261.7 221 261.4 221 260.8 221 260.1zM233.2 252.9L233.2 255.6 231 255.6 231 260.6C231 261.6 231 262.2 231 262.3 231.1 262.5 231.2 262.7 231.3 262.8 231.5 262.9 231.7 262.9 231.9 262.9 232.2 262.9 232.6 262.8 233.2 262.6L233.5 265.2C232.7 265.5 231.9 265.7 230.9 265.7 230.3 265.7 229.8 265.6 229.3 265.4 228.8 265.2 228.5 264.9 228.2 264.6 228 264.3 227.9 263.8 227.8 263.3 227.7 262.9 227.7 262.1 227.7 261L227.7 255.6 226.2 255.6 226.2 252.9 227.7 252.9 227.7 250.5 231 248.5 231 252.9zM242.7 261.4L246 262C245.6 263.2 244.9 264.1 244 264.7 243.1 265.3 241.9 265.7 240.6 265.7 238.4 265.7 236.8 265 235.8 263.5 235 262.4 234.5 261 234.5 259.2 234.5 257.2 235.1 255.6 236.2 254.4 237.2 253.2 238.6 252.7 240.3 252.7 242.1 252.7 243.6 253.3 244.6 254.5 245.7 255.7 246.2 257.6 246.2 260.1L237.9 260.1C237.9 261.1 238.2 261.8 238.7 262.4 239.2 262.9 239.9 263.2 240.6 263.2 241.1 263.2 241.6 263.1 241.9 262.8 242.3 262.5 242.5 262 242.7 261.4zM242.9 258.1C242.9 257.1 242.6 256.4 242.2 255.9 241.7 255.4 241.1 255.2 240.5 255.2 239.7 255.2 239.1 255.4 238.7 256 238.2 256.5 238 257.2 238 258.1zM260.3 265.4L257.2 265.4 257.2 263.5C256.7 264.3 256.1 264.8 255.4 265.1 254.7 265.5 254 265.7 253.3 265.7 251.9 265.7 250.7 265.1 249.6 263.9 248.6 262.8 248.1 261.2 248.1 259.1 248.1 257 248.6 255.4 249.6 254.3 250.6 253.2 251.8 252.7 253.4 252.7 254.8 252.7 256 253.2 257 254.4L257 248.2 260.3 248.2zM251.5 258.9C251.5 260.2 251.7 261.2 252 261.8 252.6 262.6 253.3 263.1 254.3 263.1 255 263.1 255.7 262.7 256.2 262.1 256.7 261.4 257 260.5 257 259.2 257 257.8 256.7 256.7 256.2 256.1 255.7 255.5 255 255.2 254.2 255.2 253.5 255.2 252.8 255.5 252.3 256.1 251.7 256.7 251.5 257.7 251.5 258.9zM272.5 265.4L268.6 252.9 271.8 252.9 274.1 261.1 276.2 252.9 279.4 252.9 281.5 261.1 283.9 252.9 287.1 252.9 283.1 265.4 280 265.4 277.8 257.4 275.7 265.4zM288.8 251.2L288.8 248.2 292.1 248.2 292.1 251.2zM288.8 265.4L288.8 252.9 292.1 252.9 292.1 265.4zM301.2 252.9L301.2 255.6 299 255.6 299 260.6C299 261.6 299 262.2 299 262.3 299.1 262.5 299.2 262.7 299.3 262.8 299.5 262.9 299.7 262.9 299.9 262.9 300.2 262.9 300.6 262.8 301.2 262.6L301.5 265.2C300.7 265.5 299.9 265.7 298.9 265.7 298.3 265.7 297.8 265.6 297.3 265.4 296.8 265.2 296.5 264.9 296.2 264.6 296 264.3 295.9 263.8 295.8 263.3 295.7 262.9 295.7 262.1 295.7 261L295.7 255.6 294.2 255.6 294.2 252.9 295.7 252.9 295.7 250.5 299 248.5 299 252.9zM306.8 248.2L306.8 254.5C307.9 253.3 309.1 252.7 310.6 252.7 311.4 252.7 312 252.8 312.7 253.1 313.3 253.4 313.7 253.7 314 254.2 314.3 254.6 314.5 255.1 314.7 255.6 314.8 256.1 314.8 257 314.8 258.1L314.8 265.4 311.5 265.4 311.5 258.8C311.5 257.5 311.5 256.7 311.3 256.3 311.2 256 311 255.7 310.7 255.5 310.4 255.3 310 255.2 309.5 255.2 309 255.2 308.5 255.3 308 255.6 307.6 255.8 307.3 256.2 307.1 256.8 306.9 257.3 306.8 258.1 306.8 259.1L306.8 265.4 303.5 265.4 303.5 248.2zM340.4 265.4L336.6 265.4 335.1 261.5 328.2 261.5 326.8 265.4 323.1 265.4 329.8 248.2 333.5 248.2zM334 258.6L331.6 252.2 329.3 258.6zM341 261.8L344.3 261.3C344.5 262 344.7 262.4 345.2 262.8 345.6 263.1 346.2 263.3 347 263.3 347.8 263.3 348.5 263.1 348.9 262.8 349.2 262.6 349.3 262.3 349.3 261.9 349.3 261.7 349.3 261.5 349.1 261.3 348.9 261.2 348.6 261 348 260.9 345.3 260.3 343.7 259.8 342.9 259.3 342 258.6 341.5 257.7 341.5 256.5 341.5 255.4 341.9 254.5 342.7 253.8 343.6 253 344.9 252.7 346.7 252.7 348.4 252.7 349.7 252.9 350.5 253.5 351.3 254 351.9 254.9 352.2 255.9L349.1 256.5C349 256 348.7 255.7 348.4 255.4 348 255.1 347.5 255 346.8 255 345.9 255 345.3 255.1 344.9 255.4 344.7 255.6 344.5 255.8 344.5 256 344.5 256.3 344.6 256.5 344.9 256.6 345.2 256.9 346.2 257.2 347.9 257.6 349.7 258 350.9 258.5 351.6 259 352.3 259.6 352.6 260.4 352.6 261.5 352.6 262.6 352.2 263.6 351.2 264.4 350.3 265.2 348.8 265.7 347 265.7 345.3 265.7 343.9 265.3 342.9 264.6 342 263.9 341.3 263 341 261.8zM355.4 252.9L358.5 252.9 358.5 254.8C358.9 254.1 359.4 253.6 360.1 253.2 360.8 252.8 361.5 252.7 362.4 252.7 363.8 252.7 365 253.2 366.1 254.3 367.1 255.5 367.6 257.1 367.6 259.1 367.6 261.2 367.1 262.8 366 263.9 365 265.1 363.8 265.7 362.3 265.7 361.7 265.7 361 265.5 360.5 265.2 359.9 265 359.3 264.5 358.7 263.8L358.7 270.1 355.4 270.1zM358.7 258.9C358.7 260.3 359 261.4 359.5 262 360.1 262.7 360.7 263 361.5 263 362.3 263 362.9 262.7 363.5 262.1 364 261.5 364.2 260.5 364.2 259.1 364.2 257.8 364 256.8 363.4 256.2 362.9 255.6 362.3 255.3 361.5 255.3 360.7 255.3 360 255.6 359.5 256.2 358.9 256.8 358.7 257.7 358.7 258.9zM369.4 259C369.4 257.9 369.7 256.8 370.2 255.8 370.8 254.8 371.5 254 372.5 253.5 373.5 252.9 374.6 252.7 375.8 252.7 377.7 252.7 379.3 253.3 380.5 254.5 381.7 255.7 382.3 257.3 382.3 259.1 382.3 261 381.7 262.6 380.4 263.8 379.2 265 377.7 265.7 375.8 265.7 374.7 265.7 373.6 265.4 372.6 264.9 371.6 264.4 370.8 263.6 370.2 262.6 369.7 261.6 369.4 260.4 369.4 259zM372.8 259.2C372.8 260.4 373.1 261.3 373.7 262 374.3 262.6 375 263 375.8 263 376.7 263 377.4 262.6 378 262 378.6 261.3 378.9 260.4 378.9 259.1 378.9 257.9 378.6 257 378 256.3 377.4 255.7 376.7 255.3 375.8 255.3 375 255.3 374.3 255.7 373.7 256.3 373.1 257 372.8 257.9 372.8 259.2zM383.7 261.8L387 261.3C387.1 262 387.4 262.4 387.8 262.8 388.3 263.1 388.9 263.3 389.6 263.3 390.5 263.3 391.1 263.1 391.6 262.8 391.9 262.6 392 262.3 392 261.9 392 261.7 391.9 261.5 391.8 261.3 391.6 261.2 391.2 261 390.7 260.9 388 260.3 386.3 259.8 385.6 259.3 384.6 258.6 384.1 257.7 384.1 256.5 384.1 255.4 384.6 254.5 385.4 253.8 386.3 253 387.6 252.7 389.4 252.7 391.1 252.7 392.3 252.9 393.2 253.5 394 254 394.6 254.9 394.9 255.9L391.8 256.5C391.6 256 391.4 255.7 391 255.4 390.6 255.1 390.1 255 389.4 255 388.6 255 387.9 255.1 387.6 255.4 387.3 255.6 387.2 255.8 387.2 256 387.2 256.3 387.3 256.5 387.5 256.6 387.8 256.9 388.8 257.2 390.6 257.6 392.4 258 393.6 258.5 394.3 259 395 259.6 395.3 260.4 395.3 261.5 395.3 262.6 394.8 263.6 393.9 264.4 392.9 265.2 391.5 265.7 389.6 265.7 387.9 265.7 386.6 265.3 385.6 264.6 384.6 263.9 384 263 383.7 261.8zM405.4 261.4L408.7 262C408.3 263.2 407.6 264.1 406.7 264.7 405.8 265.3 404.6 265.7 403.3 265.7 401.1 265.7 399.5 265 398.5 263.5 397.6 262.4 397.2 261 397.2 259.2 397.2 257.2 397.8 255.6 398.8 254.4 399.9 253.2 401.3 252.7 402.9 252.7 404.8 252.7 406.2 253.3 407.3 254.5 408.4 255.7 408.9 257.6 408.8 260.1L400.6 260.1C400.6 261.1 400.9 261.8 401.4 262.4 401.9 262.9 402.5 263.2 403.3 263.2 403.8 263.2 404.2 263.1 404.6 262.8 404.9 262.5 405.2 262 405.4 261.4zM405.6 258.1C405.6 257.1 405.3 256.4 404.8 255.9 404.4 255.4 403.8 255.2 403.1 255.2 402.4 255.2 401.8 255.4 401.3 256 400.9 256.5 400.7 257.2 400.7 258.1zM411.5 265.4L411.5 262.1 414.8 262.1 414.8 265.4zM417.3 259.8L420.7 259.5C420.9 260.6 421.3 261.4 422 262 422.6 262.5 423.4 262.8 424.5 262.8 425.6 262.8 426.4 262.5 427 262 427.6 261.6 427.8 261 427.8 260.4 427.8 260 427.7 259.6 427.5 259.3 427.2 259.1 426.8 258.8 426.2 258.6 425.8 258.5 424.9 258.2 423.5 257.9 421.6 257.4 420.3 256.8 419.5 256.2 418.5 255.2 418 254.1 418 252.7 418 251.8 418.2 251 418.7 250.2 419.2 249.5 419.9 248.9 420.9 248.5 421.8 248.1 422.9 247.9 424.2 247.9 426.4 247.9 428 248.4 429.1 249.3 430.2 250.3 430.8 251.5 430.8 253.1L427.4 253.3C427.2 252.4 426.9 251.7 426.4 251.4 425.9 251 425.2 250.8 424.2 250.8 423.2 250.8 422.4 251 421.8 251.4 421.5 251.7 421.3 252 421.3 252.5 421.3 252.9 421.5 253.2 421.8 253.5 422.2 253.9 423.3 254.3 425 254.7 426.7 255.1 427.9 255.5 428.7 255.9 429.5 256.3 430.2 256.9 430.6 257.6 431.1 258.4 431.3 259.3 431.3 260.4 431.3 261.4 431 262.3 430.5 263.1 429.9 264 429.2 264.6 428.2 265.1 427.2 265.5 425.9 265.7 424.4 265.7 422.3 265.7 420.6 265.2 419.4 264.2 418.3 263.2 417.6 261.7 417.3 259.8zM434.2 265.4L434.2 248.2 437.5 248.2 437.5 265.4zM440.9 251.2L440.9 248.2 444.2 248.2 444.2 251.2zM440.9 265.4L440.9 252.9 444.2 252.9 444.2 265.4zM459 265.4L455.9 265.4 455.9 263.5C455.4 264.3 454.8 264.8 454.1 265.1 453.4 265.5 452.7 265.7 452 265.7 450.6 265.7 449.4 265.1 448.3 263.9 447.3 262.8 446.8 261.2 446.8 259.1 446.8 257 447.3 255.4 448.3 254.3 449.3 253.2 450.5 252.7 452.1 252.7 453.4 252.7 454.7 253.2 455.7 254.4L455.7 248.2 459 248.2zM450.2 258.9C450.2 260.2 450.4 261.2 450.7 261.8 451.3 262.6 452 263.1 452.9 263.1 453.7 263.1 454.3 262.7 454.9 262.1 455.4 261.4 455.7 260.5 455.7 259.2 455.7 257.8 455.4 256.7 454.9 256.1 454.4 255.5 453.7 255.2 452.9 255.2 452.1 255.2 451.5 255.5 451 256.1 450.4 256.7 450.2 257.7 450.2 258.9zM469.4 261.4L472.7 262C472.3 263.2 471.6 264.1 470.7 264.7 469.8 265.3 468.6 265.7 467.3 265.7 465.1 265.7 463.5 265 462.5 263.5 461.7 262.4 461.2 261 461.2 259.2 461.2 257.2 461.8 255.6 462.9 254.4 463.9 253.2 465.3 252.7 467 252.7 468.8 252.7 470.3 253.3 471.3 254.5 472.4 255.7 472.9 257.6 472.9 260.1L464.6 260.1C464.6 261.1 464.9 261.8 465.4 262.4 465.9 262.9 466.6 263.2 467.3 263.2 467.8 263.2 468.3 263.1 468.6 262.8 469 262.5 469.2 262 469.4 261.4zM469.6 258.1C469.6 257.1 469.3 256.4 468.9 255.9 468.4 255.4 467.8 255.2 467.2 255.2 466.4 255.2 465.8 255.4 465.4 256 464.9 256.5 464.7 257.2 464.7 258.1zM474.4 261.8L477.7 261.3C477.8 262 478.1 262.4 478.6 262.8 479 263.1 479.6 263.3 480.4 263.3 481.2 263.3 481.8 263.1 482.3 262.8 482.6 262.6 482.7 262.3 482.7 261.9 482.7 261.7 482.6 261.5 482.5 261.3 482.3 261.2 481.9 261 481.4 260.9 478.7 260.3 477 259.8 476.3 259.3 475.3 258.6 474.8 257.7 474.8 256.5 474.8 255.4 475.3 254.5 476.1 253.8 477 253 478.3 252.7 480.1 252.7 481.8 252.7 483.1 252.9 483.9 253.5 484.7 254 485.3 254.9 485.6 255.9L482.5 256.5C482.4 256 482.1 255.7 481.7 255.4 481.4 255.1 480.8 255 480.1 255 479.3 255 478.7 255.1 478.3 255.4 478 255.6 477.9 255.8 477.9 256 477.9 256.3 478 256.5 478.2 256.6 478.5 256.9 479.6 257.2 481.3 257.6 483.1 258 484.3 258.5 485 259 485.7 259.6 486 260.4 486 261.5 486 262.6 485.5 263.6 484.6 264.4 483.6 265.2 482.2 265.7 480.4 265.7 478.7 265.7 477.3 265.3 476.3 264.6 475.3 263.9 474.7 263 474.4 261.8zM494.1 252.9L496 252.9 496 252C496 250.9 496.1 250.2 496.3 249.7 496.5 249.1 496.9 248.7 497.5 248.4 498.1 248.1 498.9 247.9 499.8 247.9 500.7 247.9 501.6 248 502.5 248.3L502.1 250.6C501.6 250.5 501.1 250.4 500.6 250.4 500.1 250.4 499.8 250.5 499.6 250.8 499.4 251 499.2 251.4 499.2 252.1L499.2 252.9 501.7 252.9 501.7 255.5 499.2 255.5 499.2 265.4 496 265.4 496 255.5 494.1 255.5zM502.8 259C502.8 257.9 503.1 256.8 503.6 255.8 504.1 254.8 504.9 254 505.9 253.5 506.9 252.9 508 252.7 509.2 252.7 511.1 252.7 512.6 253.3 513.8 254.5 515 255.7 515.6 257.3 515.6 259.1 515.6 261 515 262.6 513.8 263.8 512.6 265 511.1 265.7 509.2 265.7 508.1 265.7 507 265.4 506 264.9 504.9 264.4 504.1 263.6 503.6 262.6 503.1 261.6 502.8 260.4 502.8 259zM506.2 259.2C506.2 260.4 506.5 261.3 507.1 262 507.6 262.6 508.4 263 509.2 263 510.1 263 510.8 262.6 511.4 262 512 261.3 512.3 260.4 512.3 259.1 512.3 257.9 512 257 511.4 256.3 510.8 255.7 510.1 255.3 509.2 255.3 508.4 255.3 507.6 255.7 507.1 256.3 506.5 257 506.2 257.9 506.2 259.2zM521.4 265.4L518.1 265.4 518.1 252.9 521.1 252.9 521.1 254.7C521.7 253.9 522.1 253.3 522.6 253 523 252.8 523.4 252.7 524 252.7 524.7 252.7 525.4 252.9 526.1 253.3L525.1 256.1C524.6 255.8 524.1 255.6 523.6 255.6 523.1 255.6 522.7 255.7 522.4 256 522.1 256.2 521.8 256.7 521.6 257.4 521.5 258 521.4 259.4 521.4 261.5zM540.5 248.2L543.9 248.2 543.9 259.1C543.9 260.5 543.8 261.6 543.5 262.4 543.2 263.4 542.6 264.2 541.7 264.8 540.8 265.4 539.7 265.7 538.2 265.7 536.5 265.7 535.2 265.2 534.3 264.2 533.4 263.3 532.9 261.9 532.9 260.1L536.2 259.7C536.2 260.7 536.4 261.4 536.6 261.8 537 262.4 537.6 262.7 538.3 262.7 539.1 262.7 539.7 262.5 540 262 540.3 261.6 540.5 260.7 540.5 259.3zM550 256.7L547 256.2C547.4 255 548 254.1 548.8 253.5 549.6 252.9 550.8 252.7 552.4 252.7 553.9 252.7 555 252.8 555.7 253.2 556.4 253.5 556.9 254 557.2 254.5 557.5 255 557.7 256 557.7 257.4L557.6 261.3C557.6 262.4 557.7 263.2 557.8 263.7 557.9 264.2 558.1 264.8 558.4 265.4L555.1 265.4C555 265.2 554.9 264.8 554.8 264.4 554.8 264.2 554.7 264.1 554.7 264 554.1 264.6 553.5 265 552.9 265.2 552.3 265.5 551.6 265.7 550.8 265.7 549.6 265.7 548.6 265.3 547.8 264.6 547.1 263.9 546.7 263 546.7 262 546.7 261.3 546.9 260.6 547.2 260.1 547.5 259.5 548 259.1 548.6 258.8 549.2 258.5 550.1 258.3 551.2 258.1 552.8 257.8 553.8 257.5 554.4 257.3L554.4 256.9C554.4 256.3 554.3 255.8 554 255.6 553.7 255.3 553.1 255.2 552.2 255.2 551.6 255.2 551.2 255.3 550.8 255.5 550.5 255.7 550.2 256.2 550 256.7zM554.4 259.4C554 259.5 553.4 259.7 552.4 259.9 551.5 260.1 550.9 260.3 550.6 260.5 550.2 260.8 550 261.2 550 261.6 550 262.1 550.2 262.5 550.5 262.8 550.9 263.2 551.3 263.3 551.8 263.3 552.4 263.3 553 263.1 553.5 262.8 553.9 262.5 554.2 262.1 554.3 261.7 554.4 261.4 554.4 260.8 554.4 260.1zM564.3 265.4L559.3 252.9 562.8 252.9 565.1 259.3 565.8 261.4C566 260.9 566.1 260.5 566.2 260.3 566.3 260 566.4 259.6 566.5 259.3L568.9 252.9 572.3 252.9 567.3 265.4zM576.7 256.7L573.7 256.2C574.1 255 574.7 254.1 575.5 253.5 576.3 252.9 577.5 252.7 579.1 252.7 580.6 252.7 581.7 252.8 582.4 253.2 583.1 253.5 583.6 254 583.9 254.5 584.2 255 584.4 256 584.4 257.4L584.3 261.3C584.3 262.4 584.4 263.2 584.5 263.7 584.6 264.2 584.8 264.8 585.1 265.4L581.8 265.4C581.7 265.2 581.6 264.8 581.5 264.4 581.5 264.2 581.4 264.1 581.4 264 580.8 264.6 580.2 265 579.6 265.2 579 265.5 578.3 265.7 577.5 265.7 576.3 265.7 575.2 265.3 574.5 264.6 573.8 263.9 573.4 263 573.4 262 573.4 261.3 573.6 260.6 573.9 260.1 574.2 259.5 574.7 259.1 575.3 258.8 575.9 258.5 576.8 258.3 577.9 258.1 579.5 257.8 580.5 257.5 581.1 257.3L581.1 256.9C581.1 256.3 581 255.8 580.7 255.6 580.4 255.3 579.8 255.2 578.9 255.2 578.3 255.2 577.9 255.3 577.5 255.5 577.2 255.7 576.9 256.2 576.7 256.7zM581.1 259.4C580.7 259.5 580 259.7 579.1 259.9 578.2 260.1 577.6 260.3 577.3 260.5 576.9 260.8 576.7 261.2 576.7 261.6 576.7 262.1 576.9 262.5 577.2 262.8 577.6 263.2 578 263.3 578.5 263.3 579.1 263.3 579.7 263.1 580.2 262.8 580.6 262.5 580.9 262.1 581 261.7 581.1 261.4 581.1 260.8 581.1 260.1zM593.6 251.5L593.6 248.4 604.8 248.4 604.8 250.8C603.9 251.7 603 253 602 254.8 601 256.5 600.3 258.3 599.8 260.2 599.3 262.1 599.1 263.9 599.1 265.4L595.9 265.4C595.9 263 596.4 260.6 597.4 258.1 598.3 255.6 599.5 253.4 601.1 251.5zM607.6 265.4L607.6 262.1 610.9 262.1 610.9 265.4zM613.6 251.5L613.6 248.4 624.9 248.4 624.9 250.8C623.9 251.7 623 253 622 254.8 621.1 256.5 620.3 258.3 619.8 260.2 619.3 262.1 619.1 263.9 619.1 265.4L615.9 265.4C616 263 616.5 260.6 617.4 258.1 618.3 255.6 619.5 253.4 621.1 251.5zM627.7 265.4L627.7 262.1 630.9 262.1 630.9 265.4zM639.2 248.1C640.8 248.1 642.1 248.7 643.1 249.9 644.2 251.3 644.8 253.6 644.8 256.9 644.8 260.2 644.2 262.5 643.1 263.9 642.1 265.1 640.8 265.7 639.2 265.7 637.5 265.7 636.2 265 635.1 263.7 634.1 262.5 633.6 260.2 633.6 256.9 633.6 253.6 634.2 251.3 635.3 249.9 636.2 248.7 637.5 248.1 639.2 248.1zM639.2 250.9C638.8 250.9 638.4 251 638.1 251.2 637.8 251.5 637.6 251.9 637.4 252.6 637.2 253.5 637 254.9 637 256.9 637 258.9 637.2 260.3 637.4 261.1 637.6 261.8 637.8 262.3 638.1 262.6 638.4 262.8 638.8 262.9 639.2 262.9 639.6 262.9 639.9 262.8 640.2 262.6 640.6 262.3 640.8 261.8 641 261.2 641.2 260.3 641.3 258.9 641.3 256.9 641.3 254.9 641.2 253.5 641 252.8 640.8 252 640.6 251.5 640.2 251.2 639.9 251 639.6 250.9 639.2 250.9zM647.7 265.4L647.7 262.1 651 262.1 651 265.4zM659.2 248.1C660.9 248.1 662.2 248.7 663.1 249.9 664.2 251.3 664.8 253.6 664.8 256.9 664.8 260.2 664.2 262.5 663.1 263.9 662.2 265.1 660.9 265.7 659.2 265.7 657.5 265.7 656.2 265 655.2 263.7 654.1 262.5 653.6 260.2 653.6 256.9 653.6 253.6 654.2 251.3 655.3 249.9 656.2 248.7 657.5 248.1 659.2 248.1zM659.2 250.9C658.8 250.9 658.4 251 658.1 251.2 657.8 251.5 657.6 251.9 657.4 252.6 657.2 253.5 657.1 254.9 657.1 256.9 657.1 258.9 657.2 260.3 657.4 261.1 657.6 261.8 657.8 262.3 658.1 262.6 658.4 262.8 658.8 262.9 659.2 262.9 659.6 262.9 660 262.8 660.3 262.6 660.6 262.3 660.8 261.8 661 261.2 661.2 260.3 661.3 258.9 661.3 256.9 661.3 254.9 661.2 253.5 661 252.8 660.8 252 660.6 251.5 660.3 251.2 659.9 251 659.6 250.9 659.2 250.9zM667.7 265.4L667.7 262.1 671 262.1 671 265.4z" />
</g>
<use xlink:href="#tp_2" fill="#000000" fill-opacity="0.38" transform="translate(1.357645, 1.357645)" />
<g fill="#ffd8cf" fill-opacity="0.75">
  <path id="tp_2" d="M214.2 279.2L217.6 280.2C217 282.1 216.2 283.5 215 284.4 213.8 285.3 212.3 285.8 210.4 285.8 208.1 285.8 206.3 285 204.8 283.4 203.3 281.9 202.6 279.8 202.6 277 202.6 274.2 203.3 272 204.8 270.4 206.3 268.8 208.2 268 210.6 268 212.7 268 214.4 268.6 215.8 269.9 216.5 270.6 217.1 271.7 217.5 273L214.1 273.9C213.9 273 213.4 272.3 212.8 271.8 212.2 271.2 211.4 271 210.5 271 209.2 271 208.1 271.4 207.4 272.3 206.6 273.3 206.2 274.7 206.2 276.8 206.2 279 206.6 280.5 207.3 281.4 208.1 282.4 209.1 282.8 210.4 282.8 211.3 282.8 212.1 282.5 212.8 281.9 213.4 281.3 213.9 280.4 214.2 279.2zM219.7 279.1C219.7 278 220 276.9 220.6 275.9 221.1 274.9 221.9 274.1 222.8 273.6 223.8 273 224.9 272.8 226.2 272.8 228 272.8 229.6 273.4 230.8 274.6 232 275.8 232.6 277.4 232.6 279.2 232.6 281.1 232 282.7 230.8 283.9 229.6 285.1 228 285.8 226.2 285.8 225 285.8 224 285.5 222.9 285 221.9 284.5 221.1 283.7 220.6 282.7 220 281.7 219.7 280.5 219.7 279.1zM223.1 279.3C223.1 280.5 223.4 281.4 224 282.1 224.6 282.8 225.3 283.1 226.2 283.1 227 283.1 227.7 282.8 228.3 282.1 228.9 281.4 229.2 280.5 229.2 279.2 229.2 278 228.9 277.1 228.3 276.4 227.7 275.8 227 275.4 226.2 275.4 225.3 275.4 224.6 275.8 224 276.4 223.4 277.1 223.1 278 223.1 279.3zM235.1 273L238.1 273 238.1 274.9C238.5 274.2 239.1 273.7 239.8 273.3 240.4 273 241.2 272.8 242 272.8 243.5 272.8 244.7 273.3 245.7 274.5 246.7 275.6 247.2 277.2 247.2 279.2 247.2 281.3 246.7 282.9 245.7 284 244.7 285.2 243.4 285.8 242 285.8 241.3 285.8 240.7 285.6 240.1 285.4 239.6 285.1 239 284.6 238.4 284L238.4 290.2 235.1 290.2zM238.3 279.1C238.3 280.5 238.6 281.5 239.2 282.2 239.7 282.8 240.4 283.2 241.2 283.2 242 283.2 242.6 282.8 243.1 282.2 243.6 281.6 243.9 280.6 243.9 279.2 243.9 277.9 243.6 276.9 243.1 276.3 242.6 275.7 241.9 275.4 241.1 275.4 240.3 275.4 239.7 275.7 239.1 276.3 238.6 276.9 238.3 277.8 238.3 279.1zM248.3 273L251.8 273 254.8 281.9 257.7 273 261.1 273 256.7 285 255.9 287.2C255.6 287.9 255.3 288.5 255.1 288.8 254.8 289.2 254.5 289.5 254.2 289.8 253.8 290 253.4 290.2 252.9 290.3 252.4 290.5 251.8 290.5 251.2 290.5 250.6 290.5 250 290.5 249.4 290.3L249.1 287.8C249.6 287.9 250 287.9 250.5 287.9 251.2 287.9 251.8 287.7 252.2 287.2 252.5 286.8 252.8 286.2 253 285.5zM266.3 285.5L263 285.5 263 273 266.1 273 266.1 274.8C266.6 274 267.1 273.4 267.5 273.2 267.9 272.9 268.4 272.8 268.9 272.8 269.7 272.8 270.4 273 271.1 273.4L270.1 276.3C269.5 275.9 269 275.7 268.5 275.7 268.1 275.7 267.7 275.8 267.4 276.1 267 276.3 266.8 276.8 266.6 277.5 266.4 278.1 266.3 279.5 266.3 281.6zM272.5 271.4L272.5 268.3 275.8 268.3 275.8 271.4zM272.5 285.5L272.5 273 275.8 273 275.8 285.5zM278.9 286.3L282.6 286.8C282.7 287.2 282.8 287.5 283.1 287.7 283.4 287.9 283.9 288 284.6 288 285.4 288 286.1 287.9 286.5 287.6 286.8 287.5 287 287.2 287.1 286.8 287.2 286.5 287.3 286 287.3 285.3L287.3 283.5C286.3 284.8 285.1 285.5 283.6 285.5 281.9 285.5 280.6 284.8 279.6 283.4 278.8 282.2 278.4 280.9 278.4 279.2 278.4 277.1 278.9 275.5 280 274.4 281 273.3 282.2 272.8 283.7 272.8 285.2 272.8 286.5 273.4 287.5 274.8L287.5 273 290.6 273 290.6 284.2C290.6 285.7 290.5 286.8 290.2 287.5 290 288.2 289.6 288.8 289.2 289.2 288.8 289.6 288.2 290 287.5 290.2 286.7 290.4 285.8 290.5 284.7 290.5 282.6 290.5 281.1 290.2 280.2 289.5 279.3 288.7 278.9 287.8 278.9 286.7 278.9 286.6 278.9 286.5 278.9 286.3zM281.8 279C281.8 280.3 282.1 281.3 282.6 281.9 283.1 282.5 283.7 282.8 284.5 282.8 285.3 282.8 286 282.5 286.5 281.9 287.1 281.3 287.4 280.3 287.4 279.1 287.4 277.8 287.1 276.8 286.6 276.2 286 275.6 285.4 275.3 284.5 275.3 283.8 275.3 283.1 275.6 282.6 276.2 282.1 276.8 281.8 277.7 281.8 279zM297.1 268.3L297.1 274.6C298.2 273.4 299.5 272.8 300.9 272.8 301.7 272.8 302.4 272.9 303 273.2 303.6 273.5 304.1 273.8 304.4 274.3 304.7 274.7 304.9 275.2 305 275.7 305.1 276.2 305.2 277.1 305.2 278.2L305.2 285.5 301.9 285.5 301.9 278.9C301.9 277.6 301.8 276.8 301.7 276.4 301.6 276.1 301.3 275.8 301 275.6 300.7 275.4 300.3 275.3 299.8 275.3 299.3 275.3 298.8 275.4 298.4 275.7 297.9 275.9 297.6 276.3 297.4 276.9 297.2 277.4 297.1 278.2 297.1 279.3L297.1 285.5 293.8 285.5 293.8 268.3zM314.2 273L314.2 275.7 312 275.7 312 280.7C312 281.7 312 282.3 312 282.5 312.1 282.6 312.2 282.8 312.3 282.9 312.5 283 312.7 283 312.9 283 313.2 283 313.6 282.9 314.2 282.7L314.5 285.3C313.7 285.6 312.8 285.8 311.9 285.8 311.3 285.8 310.8 285.7 310.3 285.5 309.8 285.3 309.4 285 309.2 284.7 309 284.4 308.8 284 308.8 283.4 308.7 283 308.7 282.3 308.7 281.1L308.7 275.7 307.1 275.7 307.1 273 308.7 273 308.7 270.6 312 268.6 312 273zM333.6 282.4L333.6 285.5 322 285.5C322.2 284.3 322.5 283.2 323.2 282.2 323.8 281.2 325 279.8 326.9 278.1 328.4 276.7 329.3 275.8 329.6 275.3 330.1 274.6 330.3 273.9 330.3 273.3 330.3 272.5 330.1 272 329.7 271.6 329.3 271.2 328.7 271 328.1 271 327.4 271 326.8 271.2 326.4 271.6 326 272 325.8 272.7 325.7 273.7L322.4 273.3C322.6 271.5 323.2 270.2 324.3 269.4 325.3 268.6 326.6 268.2 328.1 268.2 329.8 268.2 331.2 268.7 332.1 269.6 333.1 270.5 333.6 271.7 333.6 273 333.6 273.8 333.4 274.5 333.2 275.2 332.9 275.9 332.5 276.7 331.8 277.4 331.5 277.9 330.7 278.7 329.7 279.6 328.7 280.6 328 281.2 327.7 281.5 327.4 281.8 327.2 282.1 327 282.4zM341.4 268.2C343 268.2 344.3 268.8 345.3 270 346.4 271.4 347 273.8 347 277 347 280.3 346.4 282.6 345.3 284 344.3 285.2 343 285.8 341.4 285.8 339.7 285.8 338.4 285.1 337.3 283.9 336.3 282.6 335.8 280.3 335.8 277 335.8 273.7 336.4 271.4 337.5 270 338.4 268.8 339.7 268.2 341.4 268.2zM341.4 271C341 271 340.6 271.1 340.3 271.3 340 271.6 339.8 272.1 339.6 272.7 339.4 273.6 339.2 275 339.2 277 339.2 279 339.3 280.4 339.5 281.2 339.8 281.9 340 282.4 340.3 282.7 340.6 282.9 341 283 341.4 283 341.8 283 342.1 282.9 342.4 282.7 342.8 282.4 343 282 343.2 281.3 343.4 280.5 343.5 279 343.5 277 343.5 275 343.4 273.6 343.2 272.9 343 272.1 342.7 271.6 342.4 271.3 342.1 271.1 341.8 271 341.4 271zM354.7 268.2C356.4 268.2 357.7 268.8 358.6 270 359.7 271.4 360.3 273.8 360.3 277 360.3 280.3 359.7 282.6 358.6 284 357.7 285.2 356.4 285.8 354.7 285.8 353.1 285.8 351.7 285.1 350.7 283.9 349.7 282.6 349.1 280.3 349.1 277 349.1 273.7 349.7 271.4 350.8 270 351.8 268.8 353.1 268.2 354.7 268.2zM354.7 271C354.3 271 354 271.1 353.7 271.3 353.3 271.6 353.1 272.1 352.9 272.7 352.7 273.6 352.6 275 352.6 277 352.6 279 352.7 280.4 352.9 281.2 353.1 281.9 353.4 282.4 353.7 282.7 354 282.9 354.3 283 354.7 283 355.1 283 355.5 282.9 355.8 282.7 356.1 282.4 356.3 282 356.5 281.3 356.7 280.5 356.9 279 356.9 277 356.9 275 356.8 273.6 356.6 272.9 356.3 272.1 356.1 271.6 355.8 271.3 355.5 271.1 355.1 271 354.7 271zM369 285.5L369 282 361.9 282 361.9 279.1 369.4 268.2 372.1 268.2 372.1 279.1 374.3 279.1 374.3 282 372.1 282 372.1 285.5zM369 279.1L369 273.3 365 279.1zM375.6 280.9L375.6 277.6 382.1 277.6 382.1 280.9zM395 282.4L395 285.5 383.4 285.5C383.5 284.3 383.9 283.2 384.5 282.2 385.2 281.2 386.4 279.8 388.3 278.1 389.7 276.7 390.6 275.8 391 275.3 391.4 274.6 391.7 273.9 391.7 273.3 391.7 272.5 391.5 272 391.1 271.6 390.7 271.2 390.1 271 389.4 271 388.7 271 388.2 271.2 387.8 271.6 387.4 272 387.2 272.7 387.1 273.7L383.8 273.3C384 271.5 384.6 270.2 385.6 269.4 386.7 268.6 388 268.2 389.5 268.2 391.2 268.2 392.5 268.7 393.5 269.6 394.5 270.5 395 271.7 395 273 395 273.8 394.8 274.5 394.5 275.2 394.3 275.9 393.8 276.7 393.2 277.4 392.8 277.9 392.1 278.7 391.1 279.6 390 280.6 389.4 281.2 389.1 281.5 388.8 281.8 388.6 282.1 388.4 282.4zM402.8 268.2C404.4 268.2 405.7 268.8 406.7 270 407.8 271.4 408.3 273.8 408.3 277 408.3 280.3 407.8 282.6 406.6 284 405.7 285.2 404.4 285.8 402.8 285.8 401.1 285.8 399.7 285.1 398.7 283.9 397.7 282.6 397.2 280.3 397.2 277 397.2 273.7 397.7 271.4 398.9 270 399.8 268.8 401.1 268.2 402.8 268.2zM402.8 271C402.4 271 402 271.1 401.7 271.3 401.4 271.6 401.1 272.1 401 272.7 400.7 273.6 400.6 275 400.6 277 400.6 279 400.7 280.4 400.9 281.2 401.1 281.9 401.4 282.4 401.7 282.7 402 282.9 402.4 283 402.8 283 403.2 283 403.5 282.9 403.8 282.7 404.1 282.4 404.4 282 404.6 281.3 404.8 280.5 404.9 279 404.9 277 404.9 275 404.8 273.6 404.6 272.9 404.4 272.1 404.1 271.6 403.8 271.3 403.5 271.1 403.2 271 402.8 271zM419 285.5L415.7 285.5 415.7 273.1C414.5 274.2 413.1 275 411.4 275.6L411.4 272.6C412.3 272.3 413.2 271.8 414.2 271 415.2 270.2 415.9 269.3 416.3 268.2L419 268.2zM423.8 280.9L427 280.5C427.1 281.4 427.3 282 427.8 282.4 428.2 282.8 428.8 283 429.4 283 430.1 283 430.6 282.8 431.1 282.3 431.6 281.8 431.8 281.1 431.8 280.2 431.8 279.4 431.6 278.7 431.1 278.2 430.7 277.7 430.2 277.5 429.5 277.5 429.1 277.5 428.6 277.6 428 277.7L428.4 275.1C429.3 275.1 429.9 274.9 430.4 274.5 430.9 274.1 431.1 273.5 431.1 272.8 431.1 272.3 430.9 271.8 430.6 271.5 430.2 271.1 429.8 270.9 429.2 270.9 428.7 270.9 428.2 271.1 427.8 271.5 427.4 271.9 427.1 272.5 427.1 273.2L424 272.7C424.2 271.7 424.5 270.9 425 270.2 425.4 269.6 426 269.1 426.8 268.8 427.5 268.4 428.4 268.2 429.3 268.2 430.9 268.2 432.2 268.8 433.2 269.8 434 270.6 434.4 271.6 434.4 272.6 434.4 274.2 433.6 275.4 431.9 276.3 432.9 276.5 433.7 276.9 434.3 277.7 434.9 278.4 435.2 279.3 435.2 280.3 435.2 281.8 434.6 283.1 433.5 284.2 432.4 285.2 431.1 285.8 429.4 285.8 427.9 285.8 426.6 285.3 425.6 284.4 424.5 283.5 423.9 282.4 423.8 280.9zM460.1 285.5L456.3 285.5 454.8 281.6 448 281.6 446.6 285.5 442.9 285.5 449.6 268.3 453.2 268.3zM453.7 278.7L451.4 272.3 449 278.7zM460.8 281.9L464.1 281.4C464.2 282.1 464.5 282.6 464.9 282.9 465.4 283.2 466 283.4 466.7 283.4 467.6 283.4 468.2 283.2 468.7 282.9 469 282.7 469.1 282.4 469.1 282 469.1 281.8 469 281.6 468.9 281.4 468.7 281.3 468.3 281.1 467.8 281 465.1 280.4 463.4 279.9 462.7 279.4 461.7 278.7 461.2 277.8 461.2 276.6 461.2 275.5 461.7 274.6 462.5 273.9 463.4 273.1 464.7 272.8 466.5 272.8 468.2 272.8 469.4 273 470.3 273.6 471.1 274.1 471.7 275 472 276.1L468.9 276.6C468.7 276.1 468.5 275.8 468.1 275.5 467.7 275.3 467.2 275.1 466.5 275.1 465.7 275.1 465 275.2 464.7 275.5 464.4 275.7 464.3 275.9 464.3 276.2 464.3 276.4 464.4 276.6 464.6 276.8 464.9 277 465.9 277.3 467.7 277.7 469.5 278.1 470.7 278.6 471.4 279.1 472.1 279.7 472.4 280.5 472.4 281.6 472.4 282.7 471.9 283.7 471 284.5 470 285.4 468.6 285.8 466.7 285.8 465 285.8 463.7 285.4 462.7 284.7 461.7 284 461.1 283.1 460.8 281.9zM475.2 273L478.3 273 478.3 274.9C478.7 274.2 479.2 273.7 479.9 273.3 480.6 273 481.3 272.8 482.1 272.8 483.6 272.8 484.8 273.3 485.8 274.5 486.8 275.6 487.3 277.2 487.3 279.2 487.3 281.3 486.8 282.9 485.8 284 484.8 285.2 483.6 285.8 482.1 285.8 481.4 285.8 480.8 285.6 480.2 285.4 479.7 285.1 479.1 284.6 478.5 284L478.5 290.2 475.2 290.2zM478.5 279.1C478.5 280.5 478.7 281.5 479.3 282.2 479.8 282.8 480.5 283.2 481.3 283.2 482.1 283.2 482.7 282.8 483.2 282.2 483.7 281.6 484 280.6 484 279.2 484 277.9 483.7 276.9 483.2 276.3 482.7 275.7 482 275.4 481.3 275.4 480.4 275.4 479.8 275.7 479.2 276.3 478.7 276.9 478.5 277.8 478.5 279.1zM489.2 279.1C489.2 278 489.5 276.9 490 275.9 490.5 274.9 491.3 274.1 492.3 273.6 493.3 273 494.4 272.8 495.6 272.8 497.5 272.8 499 273.4 500.2 274.6 501.4 275.8 502 277.4 502 279.2 502 281.1 501.4 282.7 500.2 283.9 499 285.1 497.5 285.8 495.6 285.8 494.5 285.8 493.4 285.5 492.4 285 491.3 284.5 490.5 283.7 490 282.7 489.5 281.7 489.2 280.5 489.2 279.1zM492.6 279.3C492.6 280.5 492.9 281.4 493.4 282.1 494 282.8 494.7 283.1 495.6 283.1 496.5 283.1 497.2 282.8 497.8 282.1 498.4 281.4 498.6 280.5 498.6 279.2 498.6 278 498.4 277.1 497.8 276.4 497.2 275.8 496.5 275.4 495.6 275.4 494.7 275.4 494 275.8 493.4 276.4 492.9 277.1 492.6 278 492.6 279.3zM503.4 281.9L506.8 281.4C506.9 282.1 507.2 282.6 507.6 282.9 508 283.2 508.6 283.4 509.4 283.4 510.3 283.4 510.9 283.2 511.3 282.9 511.6 282.7 511.8 282.4 511.8 282 511.8 281.8 511.7 281.6 511.5 281.4 511.4 281.3 511 281.1 510.4 281 507.8 280.4 506.1 279.9 505.4 279.4 504.4 278.7 503.9 277.8 503.9 276.6 503.9 275.5 504.3 274.6 505.2 273.9 506 273.1 507.4 272.8 509.1 272.8 510.8 272.8 512.1 273 512.9 273.6 513.8 274.1 514.3 275 514.6 276.1L511.5 276.6C511.4 276.1 511.2 275.8 510.8 275.5 510.4 275.3 509.9 275.1 509.2 275.1 508.3 275.1 507.7 275.2 507.3 275.5 507.1 275.7 507 275.9 507 276.2 507 276.4 507.1 276.6 507.3 276.8 507.6 277 508.6 277.3 510.4 277.7 512.1 278.1 513.3 278.6 514 279.1 514.7 279.7 515.1 280.5 515.1 281.6 515.1 282.7 514.6 283.7 513.6 284.5 512.7 285.4 511.3 285.8 509.4 285.8 507.7 285.8 506.4 285.4 505.4 284.7 504.4 284 503.8 283.1 503.4 281.9zM525.2 281.5L528.4 282.1C528 283.3 527.4 284.2 526.4 284.8 525.5 285.5 524.4 285.8 523 285.8 520.9 285.8 519.3 285.1 518.2 283.6 517.4 282.5 517 281.1 517 279.4 517 277.3 517.5 275.7 518.6 274.5 519.7 273.3 521.1 272.8 522.7 272.8 524.6 272.8 526 273.4 527.1 274.6 528.2 275.8 528.7 277.7 528.6 280.2L520.4 280.2C520.4 281.2 520.7 281.9 521.2 282.5 521.7 283 522.3 283.3 523.1 283.3 523.6 283.3 524 283.2 524.4 282.9 524.7 282.6 525 282.2 525.2 281.5zM525.3 278.2C525.3 277.2 525.1 276.5 524.6 276 524.1 275.5 523.6 275.3 522.9 275.3 522.2 275.3 521.6 275.5 521.1 276.1 520.6 276.6 520.4 277.3 520.4 278.2zM538 285.5L538 268.3 543.6 268.3C545.7 268.3 547 268.4 547.7 268.6 548.7 268.8 549.5 269.4 550.2 270.2 550.8 271.1 551.2 272.2 551.2 273.6 551.2 274.6 551 275.5 550.6 276.3 550.2 277 549.7 277.5 549.1 277.9 548.5 278.4 547.9 278.6 547.3 278.8 546.5 278.9 545.3 279 543.7 279L541.5 279 541.5 285.5zM541.5 271.2L541.5 276.1 543.4 276.1C544.7 276.1 545.6 276 546.1 275.8 546.6 275.6 546.9 275.4 547.2 275 547.4 274.6 547.6 274.1 547.6 273.6 547.6 273 547.4 272.5 547 272.1 546.7 271.7 546.2 271.4 545.6 271.3 545.2 271.3 544.4 271.2 543.1 271.2zM559.7 273L559.7 275.7 557.4 275.7 557.4 280.7C557.4 281.7 557.5 282.3 557.5 282.5 557.5 282.6 557.6 282.8 557.8 282.9 557.9 283 558.1 283 558.3 283 558.7 283 559.1 282.9 559.7 282.7L560 285.3C559.2 285.6 558.3 285.8 557.4 285.8 556.8 285.8 556.2 285.7 555.7 285.5 555.3 285.3 554.9 285 554.7 284.7 554.5 284.4 554.3 284 554.2 283.4 554.2 283 554.1 282.3 554.1 281.1L554.1 275.7 552.6 275.7 552.6 273 554.1 273 554.1 270.6 557.4 268.6 557.4 273zM560.4 273L563.9 273 566.9 281.9 569.8 273 573.2 273 568.8 285 568 287.2C567.7 287.9 567.5 288.5 567.2 288.8 566.9 289.2 566.6 289.5 566.3 289.8 566 290 565.5 290.2 565 290.3 564.5 290.5 564 290.5 563.4 290.5 562.7 290.5 562.1 290.5 561.5 290.3L561.2 287.8C561.7 287.9 562.2 287.9 562.6 287.9 563.4 287.9 563.9 287.7 564.3 287.2 564.7 286.8 565 286.2 565.1 285.5zM582.1 285.5L582.1 268.4 585.6 268.4 585.6 282.6 594.2 282.6 594.2 285.5zM602.4 273L602.4 275.7 600.1 275.7 600.1 280.7C600.1 281.7 600.1 282.3 600.2 282.5 600.2 282.6 600.3 282.8 600.5 282.9 600.6 283 600.8 283 601 283 601.3 283 601.8 282.9 602.3 282.7L602.6 285.3C601.9 285.6 601 285.8 600 285.8 599.4 285.8 598.9 285.7 598.4 285.5 597.9 285.3 597.6 285 597.4 284.7 597.1 284.4 597 284 596.9 283.4 596.8 283 596.8 282.3 596.8 281.1L596.8 275.7 595.3 275.7 595.3 273 596.8 273 596.8 270.6 600.1 268.6 600.1 273zM616.1 285.5L613 285.5 613 283.7C612.5 284.4 611.9 284.9 611.2 285.2 610.5 285.6 609.8 285.8 609.1 285.8 607.7 285.8 606.4 285.2 605.4 284 604.4 282.9 603.9 281.3 603.9 279.2 603.9 277.1 604.4 275.5 605.4 274.4 606.4 273.3 607.6 272.8 609.1 272.8 610.5 272.8 611.7 273.3 612.8 274.5L612.8 268.3 616.1 268.3zM607.3 279C607.3 280.3 607.4 281.3 607.8 281.9 608.3 282.7 609.1 283.2 610 283.2 610.8 283.2 611.4 282.8 612 282.2 612.5 281.6 612.8 280.6 612.8 279.3 612.8 277.9 612.5 276.9 612 276.2 611.5 275.6 610.8 275.3 610 275.3 609.2 275.3 608.6 275.6 608.1 276.2 607.5 276.8 607.3 277.8 607.3 279zM619.3 285.5L619.3 282.2 622.6 282.2 622.6 285.5z" />
</g>
</g>
</svg>